<?xml version="1.0" encoding="UTF-8"?><svg id="Layer_1" xmlns="http://www.w3.org/2000/svg" viewBox="0 0 425 354"><defs><style>.cls-1{fill:#01060c;}.cls-2{fill:#1faf8d;}.cls-3{fill:#ffffff;}.cls-4{fill:#ffffff;}.cls-5{fill:#08e9a3;}.cls-6{fill:#ffffff;}</style></defs><path class="cls-4" d="M113,354H0V0h425v354H152c-3.03-8.36,16-3.3,16-7.5v-24c0-.58-3.38-2.26-3-3.98.59-2.66,4.68-.2,4.99-.52.65-.68-2.11-4.42-2.07-6.51.05-3.24,3.42-4.44,2.66-7.49-.24-.99-5.39-9.61-6.04-10.1-2.3-1.73-5.05,1.6-7.05-.87-.44-.54-5.25-12.07-5.35-12.76-.24-1.73,2.64-5.91,2.9-9.72.8-11.78-8.39-17.74,8.63-18.16,8.41-.2,16.23,1.68,23.88,2.56,3.36.39,14.46-.72,16.27,2.22,1.57,2.55-2.53,10.64,3.7,11.8,3.08.58,11.54.32,14.96.01,2.99-.27,11.63-3.18,12.8-2.86,7.29,2.03-3.25,14.04.16,18.94.9,1.29,10.27,1.39,11.93.8,2.15-.75.97-6.77,10.13-6.86.99,0,8.21,1.2,8.57,1.45,1.82,1.28-.87,4.41,7.43,4.6,10.32.24,3.85-10.97,7.91-14.16,2.38-1.87,13.68-.77,15.17-2.83,2.16-2.99-2.29-13.11,2.93-14.07,2.08-.38,14.52-.24,15.36,1.15,1.49,2.72-.4,12.55.57,13.92,1.75,2.46,11.07-.61,14.17,1.83,3.51,2.77-.81,13.69,3.05,14.97.7.23,10.96-.47,11.36-.88.69-.69-1.92-6.18,3.5-6.09,3.51.06,7.25,5.1,11.47,5.7,2.86.41,4.71-2.4,7.36-1.51,1.92.64,1.85,4.83,5.09,3.85,1.22-.37,2.28-3.55,3.18-4.89.47-.7,2.1-.79,2.41-1.73,1.75-5.28-3.87-1.32-3.04-5.84.56-3.04,4.31-2.32,4.02-5.48-3.39.65-6.57,1.39-10,1.99.17-2.71,2.46-5.98,4-8.5.81-1.33,2.69-2.05,3-2.5,6.57,3.94,10.74-13.34,15.06-7.56.54.72,2.08,7.32,3.8,1.88,1.37-4.35-4.27-10.51-2.68-15.61.55-1.76,2.69-2.01,2.91-5.19.41-6.11-5.73-8.71,2.86-12.1-.24-3.84-2.82-3.75-5.95-4.42.78-3.04.52-5.54,1-8,4.37.96,12.42.7,13.06-4.44,1.15-9.32-3.3-14.98-3.1-24.1.17-8.21,2.01-16.16,3.1-23.9.29-2.03.38-12.24,0-13.89s-4.69-1.15-6.04-2.16c-1.95-1.47-.33-6.32-6-3.49-.08-.65.14-1.45,0-2,2.66-3.64,4.4-6.92,5.01-11.49-3.15-.08-7.41,1.82-7.79-3.17-.41-5.28,5.21-5.9,5.61-6.5,1.05-1.57,1.49-13.78.96-16.13-.62-2.7-3.31-3.78-3.77-6.23-.56-2.93.7-7.22-.16-9.84s-8.53-1.5-11.35-1.65c-2.04-.11-3.98-1.14-6.05-1.1-1.77.03-1.52,3.23-4.47,2.11-1.79-3.19-3.83-2.7-4-9-.12-4.26,2.21-4.98,6-5-.05,3.8-3.37,10.65,1.97,10.97,3.53-4.54,6.24-11-1.97-10.97.08-5.6-2.35-5.85-2.95-9.55-.38-2.34.55-8.15-.19-9.31-.89-1.42-7.15-.3-8.96-2.54-3.3-4.09,3.63-13.89-8.41-12.65-3.6.37-5.26,3.34-8.9.93-1.12-.74-1.41-2.74-2.24-2.93-3.32-.77-5.8,2.41-4.21,4.93.3.47,11.13,3.94,4.87,7.11-.65-.78-6.47-6.5-6.94-6.61-2.51-.58-6.49.89-9.06,1.61-.76-1.73-1.65-2.56-3.55-2.97-5.69-1.24-3.88,1.3-5.99,3.97-.68.85-2.36.93-2.44,1.04-.58.84,6.21,7.95,1.46,8.96-.72.15-6.93-5.26-10.48-2.99-.97,7.71,12.64.32,10.05,9.38-.58,2.04-9.54,1.02-11.1,2.07-2.49,1.67.02,4.06.05,4.55.09,2.12.44,6.69.04,8.34-.21.9-6.67,2.02-4.04,4.66,2.55,2.56,3.03-5.33,8.55-2.05,3.72,2.21,1.16,4.29,1.6,6.36.74,3.49,10.82,3.91,12.36,6.68.8,1.43.11,3.25.54,4.28s3.45,1.63,1.95,5.73c1.74.45.44-2.05,1.51-2.05.49,0,5.21,1.98,5.39,2.21s-.64,4.71.1,5.85c1.56-3.01,5.86,5.79,5.99,7,.01.11-1.55,1.49-1,1.99.25.23,1.73-.22,2,0,.22.19-.21,1.49,0,2-5.82,0-1.69,12.63-3.01,14-1.35.56-3.41-1.03-3.99-1,.55-3.33-.51-3.64-3.51-3.03-1.19.24.96,4.35-3.49,3.03-2.07-6.99-3.34-11.73-4.01-19.01-.05-.59.21-1.74-.03-1.97-.29-.29-1.45.13-1.97-.03-1.24-4.01,1.18-14.31-6-6-.56-.71-1.28-.61-3-3,8.64-4.6-.64-3.48-2.05-4.45-1.31-.9-1.26-7.47-5.95-3.55-3.59-3.1-8.67-9.6-14-6-.44-5.67-6.86,3.24-4.99,5l2.99-2c-3.18,8.07,3.02,6.31,5,12-2.63-.68-5.33.83-7.61.91-3.22.11-6.87-1.47-10.71.28-2.23,1.02-1.84,5.21-4.31,5.68-2.97.56-4.42-3.85-4.95-3.93-2.71-.44-3.8,3.13-6.42,3.07-.02-.33,0-.67,0-1,.17-6.24,1.36-10.18,2.56-15.93.77-3.67,1.46-10.01-3.6-6.6-1.71,1.15-1.36,7.52-7.96,5.54-.99-2.03-1.56-3.64-3-6,2.63.77,2.48-2.1,2.06-3.44-.33-1.05-3.9-.39-4.06-2.55,6.89.02,1.76-8.5-.52-9.01-1.94-.43-3.43,3.85-4.48,4.99-.21-.16-.79.16-1,0-.53-.42-1.49-.58-2-1,1.82-7.09.7-3.63-2.52-5.95-7.13-5.14-5.48-5.21-15.48-5.05-.1,0-.62-1.31-1.91-.58s-3.87,4.79-4.11.1,3.04-6.35-4.97-8.52c.23,2.61-2.97,7.48-2.81,9.34.19,2.16,3.1,3.24,2.79,5.65-3.26.98-16.51.36-18.06,1.44-2.49,1.74,1.06,10.57-2.97,14.03-3.68,3.16-11.89.12-13.53,2.47-1.82,2.61.7,17.18-.42,21.35-.29,1.06-5.16,3.39-6.01,2.71-2-1.61,2.98-2.23,3.01-4.44.02-1.2-1.45-4.15-2.65-4.5-4.6-1.34-5.04,9.05-12.84,7.95-3.09-5.06,3.6-4.07,4.38-6.62.39-1.29-.34-3.16-1.42-3.39-1.61-.34-2.46,2.24-4.19,2.79-2.46.77-8.19.08-10.31,1.69-2.44,1.84.43,8.79-1.91,12.09-2.72,3.83-8.85,1.61-12.37,2.63-4.61,1.33-1.75,8.12-2.82,11.18-.76,2.17-5.48,1.31-4.87,4.62.86.93,8.08-.41,7,3-4.29-.68-8.22,5.8-13.38,5.05-.64-.09-.48-1.77-1.34-2.01-6.19-1.77-17.32.29-21.63-1.2-1.71-.59-1.94-3.05-3.08-3.92-2.06-1.55-23.97-1.48-25.1.05-.27.36-2.46,8.13-2.44,8.58.11,2.33,3.94,3.43,2.96,6.45-3.01.79-4.82-1.97-7.44-2.05-3.01-.09-7.87,2.01-11.12,2.08s-14.09-2.76-16.02-.1c-1.75,2.41,5.35,11.92-4.19,15.8-3.58,1.46-10.19-.78-11.09,1.92.54,5.34-1.09,10.74-1.2,15.8-.26,12.6,1.72,25.46,1.85,38.05.07,7.1-5.18,21.01,5.68,20.54,6.79-.3,4.36-5.15,5.55-6.03.71-.53,3.89,1.07,5.43.97,2.15-.14,5.39-3.64,7.08-1.02,4.02,6.22-5.36,2.42-6.38,5.7-.21,2.76-4.8,16.34.34,16.34h28.5c-.2,3.28.51,12.64,2.48,15.02s10.6-.92,13.59,3.41c1.89,2.72,1.13,11.9,2.85,13.15,1.46,1.05,11.2.27,14.06,1.43,1.3-2.58-1.54-14.48-.99-15,2.56-2.42,4.62,3.63,4.9,5.59,1.2,8.3-1.16,8.97-2.81,15s-2.91,17.85.11,23.71c1.87,3.63,5.18.42,7.85,1.12.45.12,6.5,4.46,6.7,4.82,1.8,3.11-.78,9.82,2.28,11.31,2.3.27,15.98-.42,16.5.41,2.17,3.43-1.99,4.86-2.52,7.55-.79,4.04.99,9.24-1.02,13.49h-2c1.67-3.02-7.63-2.28-8.01-2-.16.12.1,1.44,0,2ZM316.99,33.99c.73-.73-.37-4.45-2.48-3.99-3.7.81.55,5.92,2.48,3.99ZM329.99,31.01h-2.99v1.99h2.99v-1.99ZM279.5,63c-3.42.96-10.56-.7-14.5,0,1.07,1.56.72,7.71.99,8.01,1.14,1.2,10.66-3.49,8,8,11.76.93,6.96-3.89,7.96-11.55.88-6.74,6.82-2.96,7.92-6.08,2.29-6.54-3.09-6.55-7.86-7.37.21,2.5.41,8.18-2.51,9ZM252,63.01c-.12-.17-3.79-1.23-3.99-1.01-1.68,7.28,5.47,3.11,3.99,1.01ZM269.01,90c5.3,1.86,5.09-8.87,2.49-9.99-4.38-1.87-1.89,7.33-2.49,9.99ZM323.5,93v1c.65-.33.65-.67,0-1ZM268.99,94.01c-1.09-1.09-3.08.9-1.99,1.99,1.09,1.09,3.08-.9,1.99-1.99ZM331.99,108.01h-1.99v3.99h1.99v-3.99ZM390.84,264.15c-4.85-3.08-12.68,4.05-4.36,4.92,4.79.5,7.45-2.96,4.36-4.92Z"/><path class="cls-6" d="M326,38c-.57.16-1.66,1.95-2,2-1,.15-6.14-2.61-4.84,2.33,1.06,4.04,5.5,3.02,6.84,3.67,3,1.46,13.63,11.15,14.94,13.81.38.77-.28,2.69.12,3.12s3.56-.44,4.5,1.01c.77,1.19.08,3.62.93,5.07.74,1.27,3.32,1.41,4.5,2.53,2.65,2.53,8.48,13.24,10.99,17.02,3.39,5.1,3.19,7.46,5.55,11.42.89,1.49,2.75,1.58,3.2,2.28,2.42,3.72,2.11,11.58,3.53,14.96,3.04,7.22,8.27,18.12,8.67,26.43.26,5.5-1.18,2.85.99,8.11,1.98,4.8,1.57,31.12,1.11,37.77-.8,11.48-9.83,44.03-15.83,54.17-1.48,2.5-3.67,2.94-4.28,3.98-1.33,2.24-.51,5.85-2.43,8.32-1.72,2.22-5.55,2.1-6.51,6.99-.04-.46-.95-5.62-2.48-4.99-.49.2-1.1,1.45-2.25,1.75-3.66.94-5.69-1.3-6.31,3.69-.13,1.05-.18,6.33.05,6.55,2.62,2.54,4.75-4.7,5.11-4.95.67-.45,2.42.96,3.31.98.62.01.54-2.85,2.57-2.04,0,3.04-.78,6.64-1,10-.02.35-.83,1.02-.81,1.7.08,3.1,6.89,5.78,9.81,5.3-.52-2.5-1.65-3.09-2-5.99-.12-.97.08-2.02,0-3,.33.01.67.01,1,0,2.33-.1,3.28-.7,5-1,3.42-.6,6.61-1.35,10-1.99.3,3.16-3.46,2.44-4.02,5.48-.83,4.52,4.79.56,3.04,5.84-.31.94-1.94,1.03-2.41,1.73-.9,1.34-1.96,4.52-3.18,4.89-3.23.98-3.17-3.21-5.09-3.85-2.66-.89-4.5,1.91-7.36,1.51-4.22-.6-7.96-5.64-11.47-5.7-5.42-.09-2.82,5.4-3.5,6.09-.4.41-10.65,1.11-11.36.88-3.86-1.29.46-12.21-3.05-14.97-3.1-2.44-12.42.63-14.17-1.83-.98-1.37.91-11.2-.57-13.92-.84-1.39-13.28-1.53-15.36-1.15-5.22.96-.77,11.08-2.93,14.07-1.49,2.07-12.79.96-15.17,2.83-4.06,3.19,2.41,14.4-7.91,14.16-8.29-.19-5.61-3.33-7.43-4.6-.36-.25-7.57-1.46-8.57-1.45-9.16.09-7.98,6.11-10.13,6.86-1.66.58-11.03.49-11.93-.8-3.4-4.9,7.13-16.91-.16-18.94-1.17-.33-9.81,2.59-12.8,2.86-3.42.3-11.88.56-14.96-.01-6.23-1.17-2.13-9.26-3.7-11.8-1.81-2.94-12.91-1.84-16.27-2.22-7.66-.88-15.47-2.77-23.88-2.56-17.02.41-7.83,6.38-8.63,18.16-.26,3.81-3.14,7.99-2.9,9.72.09.69,4.91,12.22,5.35,12.76,2,2.47,4.75-.86,7.05.87.65.49,5.8,9.12,6.04,10.1.76,3.06-2.61,4.25-2.66,7.49-.03,2.09,2.73,5.84,2.07,6.51-.3.32-4.39-2.14-4.99.52-.39,1.73,3,3.4,3,3.98v24c0,4.2-19.03-.86-16,7.5h-29c2-4.24.23-9.44,1.02-13.49.52-2.69,4.68-4.12,2.52-7.55-.53-.84-14.21-.14-16.5-.41-3.06-1.49-.48-8.2-2.28-11.31-.21-.36-6.25-4.7-6.7-4.82-2.67-.7-5.98,2.51-7.85-1.12-3.01-5.86-1.83-17.42-.11-23.71s4.01-6.69,2.81-15c-.28-1.96-2.34-8.01-4.9-5.59-.55.52,2.29,12.42.99,15-2.86-1.16-12.61-.38-14.06-1.43-1.73-1.24-.97-10.42-2.85-13.15-3-4.32-11.54-.94-13.59-3.41s-2.68-11.74-2.48-15.02h-28.5c-5.14,0-.55-13.58-.34-16.34,1.02-3.28,10.4.52,6.38-5.7-1.69-2.62-4.93.87-7.08,1.02-1.54.1-4.72-1.5-5.43-.97-1.18.88,1.24,5.73-5.55,6.03-10.86.47-5.61-13.44-5.68-20.54-.13-12.59-2.1-25.44-1.85-38.05.1-5.06,1.74-10.46,1.2-15.8.89-2.7,7.5-.46,11.09-1.92,9.53-3.87,2.44-13.38,4.19-15.8,1.93-2.67,12.7.17,16.02.1s8.1-2.18,11.12-2.08c2.62.08,4.42,2.84,7.44,2.05.99-3.01-2.85-4.11-2.96-6.45-.02-.45,2.17-8.22,2.44-8.58,1.14-1.54,23.05-1.6,25.1-.05,1.15.86,1.37,3.33,3.08,3.92,4.31,1.49,15.44-.57,21.63,1.2.86.25.69,1.92,1.34,2.01,5.16.75,9.09-5.74,13.38-5.05,1.07-3.41-6.14-2.08-7-3-.61-3.31,4.11-2.45,4.87-4.62,1.07-3.06-1.78-9.85,2.82-11.18,3.52-1.02,9.66,1.21,12.37-2.63,2.34-3.3-.53-10.25,1.91-12.09,2.12-1.61,7.85-.92,10.31-1.69,1.74-.54,2.59-3.12,4.19-2.79,1.07.23,1.81,2.1,1.42,3.39-.78,2.55-7.47,1.56-4.38,6.62,7.81,1.1,8.25-9.29,12.84-7.95,1.2.35,2.67,3.29,2.65,4.5-.04,2.21-5.01,2.83-3.01,4.44.85.68,5.72-1.64,6.01-2.71,1.12-4.17-1.39-18.74.42-21.35,1.64-2.35,9.85.69,13.53-2.47,4.03-3.46.48-12.29,2.97-14.03,1.55-1.08,14.79-.46,18.06-1.44.31-2.41-2.6-3.49-2.79-5.65-.17-1.86,3.04-6.73,2.81-9.34,8.01,2.17,4.74,4.04,4.97,8.52s2.79.64,4.11-.1,1.81.58,1.91.58c.92,3.34-4.28,2.07-5.54,3.96-.98,1.48-.33,4.26-.46,6.04-5.89,5.23-10.45,11.94-15,18-.38.5-.66.66-1,1-.82.81-.35-.1-2,2-.36.46-.54.64-1,1-.32.25-1.63,0-2.52.99-1.05,1.16.55.97.52,1.01-3.3,5.45-34.72,28.06-42.67,32.83-24.59,14.72-51.18,21.92-78.33,30.17-4.37,1.33-8.65,2.59-13,4s-8.34,1.22-12.71,3.79c-5.55,3.27-13.42,13.53-15.35,19.65-6.05,19.16,5.2,58.27,31.06,51.56.22.15,1.84-.21,3.01.47,1.46.84,1.6,3.27,2.69,3.55,3.96,1,13.39-2.57,16.14-.85,1.3.81,10.64,23.94,12.63,27.87,1.65,3.27,4.6,6.01,6.41,9.59,6.42,12.7,12.29,34.38,19.9,45.1,1.73,2.44,2.39,2.01,4.22,3.28,4.85,3.38,6.82,4.72,13.05,3.54,5.68-1.07,22.7-8.37,22.9-15.03l-27.35-53.61c-2.78-8.12-8.41-15.75-9.61-24.9,4.3-.02,8.71-.18,13,0,1.61,6.16-1.88,5.65-2.99,7.02-1.62,1.99,1.96,2.11,2.5,2.93.98,1.5.38,8.37-.5,9.05-.16.12-4.09-.1-1.99,1.99s1.84-1.87,1.99-1.99c.24-.2,2.12.19,2.99-.47,2.87-2.18-2.16-14.26.01-18.53,21.87,1.09,40.34,5.4,61,12,.55,3.13-1.57,1.82-3.47,1.99-4.45.39-7.67.29-11.93.11-1.05-.04-2.27.92-3.09.92-1.11,0,.25-2.3-1.15-3.07-3.03-1.67-18.09-2.44-21.88-1.95-1.38.17-2.99.61-1.48,1.99,1.67,1.54,8.87-.61,11.3-.01,1.09.27,1.99,4.32,4.4,4.87,1.56.36,3.29-.97,4.8-.85,3.89.33,7.98,1.76,11.97,2.04s17.65,1.95,13.54-5.04c11.48,3.82,22.48,8.1,33.68,12.82,8.33,3.51,17.39,9.81,26.32,11.18,6.32.97,11.36-1.61,13.55-7.96,1.36-3.94,4.99-18.97,5.22-22.79.22-3.7-1.45-8.43-.82-12.81.43-3,3.53-5.41,1.52-8.47-.45-.68-2.24-.66-2.5-1.67-.16-.62-.81-10.59-.73-11.59.27-3.26,1.41-2.53,3.76-2.71-2.3,6.27,6.66,4.49,5.99,1.52-1.1-1.78-2.4-1.31-3.99-1.52,1.48-6.96-3.33-2.22-3.99-3-.23-2,.4-4.41-.02-6.3-.17-.79-2.2-.62-2.75-3.38-1.11-5.44-1.07-12.18-1.28-17.76l-4.95-11.55c-.09-.65.08-1.35,0-2-2.35-18.17-5.42-26.71-11-44,5.73-.76,5.2-10.34,0-4-.29-1.1-2.82-2.97-3-6,2.62.05,3.71-3.51,6.42-3.07.53.09,1.98,4.49,4.95,3.93,2.47-.46,2.08-4.66,4.31-5.68,3.84-1.75,7.49-.17,10.71-.28,2.28-.08,4.98-1.58,7.61-.91.19.54-.2,1.84,0,2,.12.1,1.61-1.06,2.93-.53,2.62,1.06,5.53,4.9,6.59,7.54.31.78,1.41,3.43,1.46,3.66.29,1.26-.31,3.91.04,4.29.88.96,5.78-.22,5.96.02.24.33-.19,1.52,0,2-7.05.06-5.24,10.64,2,7,.33.99.65,2.03,1,3-1.67-.51-2.83,1.95-3,2-.86.24-2.86,0-4,0h-4c-1.02-1.65-2.74-1.89-3.37-3.29-.92-2.07.42-3.28.37-3.71-.27-2.38-2.78-6.63-5.48-5.99l-.52.99c-1.22-2.61-.7-2.69-1-5-.61-4.78-1.56-10.04-7-5-.56-.13-1.35.06-2,0l-.51-3.01c-.86-.1-6.24.8-6.48,1.02-.63.58.99,1.88,1,1.99.31,3.62-1.92,5.87-.45,9.95,1.49,4.16,10.61,9.05,11.31,12.81.34,1.82-4.43,7.6-1.79,10.19.21.21,4.52.25,4.88-.06.63-.53-1.16-3.84,2.06-2.88.04,2.97-1.99,9.81.31,11.77.51.44,2.02-.12,2.77.84,3.37,4.3,3.66,27.7,3,33.94-.15,1.44-3.06,2.56-3.65,5.45-.53,2.57.79,4.23.2,7.04-.6,2.85-3.47,4.61-3.65,6.48-.52,5.47,2.52,3.61,2.8,3.76.64.34-.72,1.67,3.23,1.72.31,0,.71.07,1,0-.91,2.88,3.01,2.4,3.86,1.85.51-.33,1.22-4.37,1.86-5.6,5.34-10.29,3.33-17.88,6.18-26.77.57-1.78,1.95-1.23,2.17-2.91.85-6.31-1.72-6.13-3.04-10.15-2.04-6.26-2.82-18.56-5.04-26.41,1.66-1.08,1.01-4.12,1-6,1.28.13,2.77-.2,4,0,1.06.17,2.52,1.36,4,1-.17,1.62.11,3.36,0,5l5.99-1.99c.56,2.31-1.47,5.33-1.06,7.3.17.85,2.46,1.15,3.33,2.91.64,1.3,1.49,5.79,1.61,7.41.48,6.15-3.23,10.57-1.95,16.82.22,1.09,2.33.17,2.87.69.2.19,1.09,4.71,1.1,5.47.05,5.1-2.57,12.24-.9,17.39-.11.62.12,1.4,0,2-2.03,1.72-4.58,6.72-5.49,9.1-1.01,2.63-.05,6.19-3.08,9.83-1.58,1.9-5.59,2.02-6.27,5.82-.47,2.63,2.11,2.9,1.84,5.24-4.11-.68-3.43,2.05-4,5-2.19.17-6.05,2.11-6.04,4.49.02,4.6,5.51.82,6.04-.49,1.06.18,1.57,1.71,2,2v5c2.8.92,3.17-1.46,4-2,2.86-1.85,5.56-5.6,5,0,1.33.6,2.82-1,3-1,1.23.01,2.66,1.09,3.99,1,1.1-1.27-2.2-8.37-4.99-8,.03-.67-.03-1.34,0-2l1.97,1c.59-4.14,3.34-7.36,5.02-11,3.6-.87,1.36,3.44,1.99,4.01,1.15,1.04,5.45-2.93,4,5.49,5.36,2.18,3.35-3.78,4.25-6.75.92-3.07,8.77-10.9,6.34-13.81-.84-1.01-3.34-.46-3.66-1.54-.42-1.43,1.44-10.76,2.19-11.28.89-.63,6.26.3,6.73,1.05.68,1.09-.25,4.36,1.16,5.84-3.15,5.25-1.3,7.23-2.11,10.3-.5,1.9-2.88,2.04-3.56,3.03-3.28,4.76-4.57,11.03-4.82,16.7l-7.51,6.97c.4-2.28.58-4.71.99-7-5.16.37-7.83,2.81-4.04,7.33.91,1.09,1.84.51,2.05.66,4.24,2.95.3,3.3-.76,6.75-1.61,5.26,1.58,4.01,1.76,4.25.5.68-.77,3.76,2.5,4.05,4.48.39,4.59-3.39,6.13-3.88,2.66-.86,6.64,1.4,5.39-2.67-.1-.33-2.06-.51-2.08-1.05-.11-2.37,8.33-14.22,10.13-17.87,8.42-17.09,12.58-37.95,13.01-58.07.07-3.18-1.64-6.31-1.15-10.04.29-2.21,2.05-3.79,2.05-4.95,0-1.59-4.92-14.06-5.74-17.25-3.88-15.14-5.42-24.02-13.68-37.32-3.19-5.13-9.06-12.08-6.57-17.93-5.18,1.57-10.82,1.39-5-3.5-.89-2.26-5.61-1.17-5.98-1.52-.25-.25-.03-6.17-1.07-6.95-.4-.3-5.4,2.85-6.95-5.03-.23-1.17.18-2.74,0-4-2.61.12-4.59-1-4,2-3.59-2.99-5.12-7.66-10.38-5.85-1.55.53-1.17,3.51-3.62,2.85-.02-.49-2.53-2.88-.05-4.55,1.56-1.05,10.52-.03,11.1-2.07,2.59-9.06-11.02-1.67-10.05-9.38,3.55-2.27,9.76,3.14,10.48,2.99,4.75-1.01-2.04-8.12-1.46-8.96.08-.11,1.76-.19,2.44-1.04,2.12-2.66.3-5.21,5.99-3.97,1.9.41,2.79,1.24,3.55,2.97ZM202.99,70.01c-1.09-1.09-3.08.9-1.99,1.99s3.08-.9,1.99-1.99ZM357.99,89.01c-1.09-1.09-3.08.9-1.99,1.99,1.09,1.09,3.08-.9,1.99-1.99ZM177.99,97.01h-3.99s0,2.99,0,2.99c2.17-.25,4.73-.63,3.99-2.99ZM147.99,113.01c-1.84-.23-2.93-.06-3.98,1.51v1.48s3.99,0,3.99,0v-2.99ZM136,118.99c.14.12,2.18.07,3.51.96,1.09.72,1.8,2.53,3.15,2.9,5.37,1.48,3.82-7.07-5.17-5.86-1.35.18-3.05.64-1.49,2ZM74.13,144.85c-.45-.39.19-3.04-1.75-3.73s-5.22.16-7.39-.11c-1.53,4.13,3.73,5.96,6.99,6.6,4.54.88,15.73-.36,14.02-6.6-1.93.27-4.63-.46-6.35-.05-.9.22-1.95,6.99-5.53,3.89ZM57,150.99c1.8-2.69-3.55-5.96-5.54-3.03-3.74,5.5,4.79,4.17,5.54,3.03ZM311.99,147.01h-1.99v3.99h1.99v-3.99ZM290.5,149v1c.65-.33.65-.67,0-1ZM34.99,156c-1.29.17-3.25-.65-4.1.59-1.01,1.48-4.53,9.67-1.38,10.4,2.06.47,6.65-9.85,5.48-10.99ZM369.99,160.01h-1.99v2.99h1.99v-2.99ZM26.99,171.99c.65-.65-.03-5.54-2.48-4.99-3.83.87.2,7.28,2.48,4.99ZM316.01,195c3.93,0,3.98-3.97,0-3.99v3.99ZM26.99,214c-3.93,0-3.98,3.97,0,3.99v-3.99ZM302,223.01c-1.14-1.11-7.9.66-6.99,3.99,2.51,1.37,9.63-1.41,6.99-3.99ZM45.99,235.01c-1.09-1.09-3.08.9-1.99,1.99s3.08-.9,1.99-1.99ZM57.83,236.17c-1.92-.85-5.96,2.32-4.83,4.83h7.99c.51-.44-2.9-4.71-3.16-4.83ZM354.99,236.01h-2.99v1.99h2.99v-1.99ZM250.99,267.01h-2.99v1.99h2.99v-1.99ZM160.01,303c4.1.09,4.1-5.08,0-4.99v4.99ZM108,314c-.05-1.73,1-9.73-2.48-8.99-4,.85-2.91,10.3,2.48,8.99ZM164,307.99h-2.99c.18,2.42.27,5.78,2.99,5v-5ZM114.99,315.01c-.71-.73-6.53,1.21-5.99,3.48.18.78,3.56,2.68,4.47,2.51,1.66-.3,1.96-5.54,1.52-6ZM149,333c1.79-.07,3.79.21,5.49,0s.44-5.35-3.89-3.92c-2.13.71-1.23,2.81-1.61,3.91-1.81.07-10.61.38-11,0-.53-.53-.02-2.69,1.02-3.47,2.71-2.02,9.38.44,7.97-4.52-.63-.66-12.5,3.53-12.97,5.58-.87,3.77,11.95,11.29,14.97,2.42Z"/><path class="cls-6" d="M113,354c.09-.56-.17-1.88,0-2,.38-.28,9.68-1.02,8.01,2h-8Z"/><path class="cls-2" d="M235,68c.51.42,1.47.58,2,1-.32,2.08.84,3.17,1.78,4.72,3.99,6.61,7.86,12.16,11.22,19.28.32.68.7,1.35,1,2,2.71,5.97,5.58,13.55,7.71,19.79,4.74,13.87,7.59,28.34,12.29,42.21.08.65-.09,1.35,0,2,3.69,27.81,12.64,76.97,1.24,102.74-1.39,3.14-6.63,7.23-10.24,6.26-2.17-.58-9.33-9.51-11.95-11.55-.66-.51-4.64-3.25-5.05-3.45-3.4-7.28-13.22-10.93-20.32-14.18-35.83-16.41-77.18-23.16-116.16-15.82l1.49,1.99c-4.14.11-8.36-.27-12.49.01-5.92.4-14.77,3.15-20.06,3.04-4.04-.08-8.66-8.31-10.32-11.68-4.82-9.74-8.76-25.14-7.08-35.86.33-2.08,1.92-3.32,1.96-3.52-1.3,18.92.9,15.82,16.21,12.71,40.06-8.15,88.93-29.39,121.04-54.74,1.22-.97,6.88-6.2,7.24-6.99l-.48-33.98c.19-15.19.02-10.56-6.95-3.48-30.72,31.17-63.13,51.24-105.29,64.75-7.87,2.52-20.52,1.47-21.76,11.74-3.86,1.12-6.08,1.58-9,5,.03-.15-1.1-.8-.63-2.95,1.18-5.41,4.58-10.03,6.63-15.05,27.15-8.26,53.74-15.45,78.33-30.17,7.95-4.76,39.37-27.37,42.67-32.83l2-2c.46-.36.64-.54,1-1l2-2c.34-.34.62-.5,1-1,10.72-1.68,12.14-10.12,16-18,1.22-2.49,1.66-5.26,5.05-6.44,8.64-3.02,12.23,2.73,17.95,7.44ZM229.69,71.31c-10.81-9.31-14.7,5.56-15.57,14.31-4.71,47.09,10.97,117.97,34.71,159.05,4,6.93,14.05,23.94,20.95,9.61,7.3-15.16,1.9-60.88-1.09-78.46-4.24-24.92-20-88.15-38.99-104.5Z"/><path class="cls-3" d="M318,65c1.2,1,1.21,2.81,4,2,1.55,7.88,6.55,4.74,6.95,5.03,1.04.78.82,6.7,1.07,6.95.37.36,5.08-.73,5.98,1.52-5.82,4.89-.18,5.07,5,3.5-2.49,5.85,3.38,12.8,6.57,17.93,8.26,13.29,9.8,22.18,13.68,37.32.82,3.19,5.74,15.66,5.74,17.25,0,1.17-1.76,2.74-2.05,4.95-.49,3.73,1.22,6.86,1.15,10.04-.43,20.12-4.59,40.98-13.01,58.07-1.8,3.65-10.25,15.5-10.13,17.87.03.54,1.98.71,2.08,1.05,1.25,4.07-2.73,1.81-5.39,2.67-1.54.5-1.65,4.27-6.13,3.88-3.27-.28-2.01-3.37-2.5-4.05,1.83,4.78,6.85-1.1,8.41-3.09,34.4-43.57,29.44-116.49-3-159.83-3.55-4.75-21.93-25.53-26.86-25.13-2.58.21-4.6,3.71-3.36,5.87.39.68,10.42,7.53,12.46,9.53,37.59,36.93,47.88,97.35,26.53,145.33-3.53,7.93-10.58,15.83-13.4,22.61-.52,1.26-1.24,3.5-.78,4.71-.17-.24-3.37,1.01-1.76-4.25,1.06-3.46,4.99-3.8.76-6.75.46-.13.92-.54,1-1l7.51-6.97c.24-5.67,1.54-11.94,4.82-16.7.68-.99,3.06-1.13,3.56-3.03.81-3.07-1.04-5.06,2.11-10.3.06-.09,1.75.44,2.04-.65.22-.84-.78-8.95-1.04-9.35,4.91-1.22,2.59-4.83,3-9,.53-5.3,1.03-9.54,1-15-.06-10.43-1.04-17.48-4-27-.76-2.46-.89-4.17-2-7-1.36-3.48-2.25-2.95-3-8-.86-5.77.52-5.84-5-10-.16-1.77-.52-1.82-1-3-.21-.51.22-1.81,0-2l-1-2c-.13-1.2-4.43-10-5.99-7-.75-1.14.08-5.62-.1-5.85s-4.9-2.21-5.39-2.21c-1.08,0,.23,2.5-1.51,2.05,1.5-4.1-1.53-4.71-1.95-5.73s.26-2.85-.54-4.28c-1.54-2.77-11.63-3.19-12.36-6.68-.44-2.07,2.12-4.15-1.6-6.36-5.52-3.28-6,4.6-8.55,2.05-2.63-2.64,3.83-3.75,4.04-4.66.39-1.65.05-6.22-.04-8.34,2.45.66,2.07-2.31,3.62-2.85,5.25-1.81,6.79,2.86,10.38,5.85Z"/><path class="cls-3" d="M302,88c2.63,2.27,6.18,5.47,8,8,1.72,2.39,2.44,2.29,3,3,2.21,2.81-.7,4,6,6,.39,1.27-1,2.47,2,2,.67,7.27,1.94,12.01,4.01,19.01,4.45,1.31,2.3-2.79,3.49-3.03,2.99-.61,4.06-.3,3.51,3.03-.27.02-4.81,1.83-5,2.02-.28.29.84,6.29,1,7.98-6.31-14.47-12.62-28.34-23.03-40.47-3.03-3.53-14.93-17.85-16.7-7.83-.43,2.42,8.93,9.63,11.24,12.29,22.82,26.26,29.44,59.29,23.49,93.01-1.68-5.15.95-12.29.9-17.39,0-.76-.89-5.28-1.1-5.47-.55-.52-2.65.4-2.87-.69-1.28-6.26,2.42-10.67,1.95-16.82-.12-1.61-.97-6.1-1.61-7.41-.87-1.76-3.16-2.06-3.33-2.91-.41-1.97,1.62-5,1.06-7.3l-5.99,1.99c.11-1.63-.17-3.38,0-5,.71-6.77.12-2.87-1-6-.35-.97-.67-2.01-1-3-.7-2.09-.9-4.39-2-7-.2-.48.23-1.68,0-2-.18-.24-5.09.93-5.96-.02-.35-.39.25-3.04-.04-4.29-.05-.23-1.14-2.88-1.46-3.66-1.06-2.64-3.97-6.48-6.59-7.54-1.32-.53-2.81.63-2.93.53-.2-.17.18-1.46,0-2-1.98-5.69-8.18-3.93-5-12,.07-.17,1.85-2.9,2-3,5.33-3.6,10.41,2.9,14,6Z"/><path class="cls-6" d="M342,43c6.26-3.18-4.57-6.64-4.87-7.11-1.59-2.52.89-5.7,4.21-4.93.83.19,1.12,2.19,2.24,2.93,3.65,2.41,5.31-.56,8.9-.93,12.04-1.25,5.12,8.56,8.41,12.65,1.81,2.24,8.07,1.12,8.96,2.54.73,1.16-.19,6.97.19,9.31.6,3.7,3.03,3.95,2.95,9.55,8.21-.04,5.49,6.43,1.97,10.97-5.34-.32-2.02-7.17-1.97-10.97-3.79.02-6.12.74-6,5-4.9-1.48-3.94-5.4-6.02-7.5-1.21-1.22-2.98-.96-3.98-1.5-3.11-6.61-10.71-14.87-15-20ZM355.99,45.01c-1.6-1.62-5.61,2.37-3.99,3.99,2.08,2.07,6.07-1.88,3.99-3.99Z"/><path class="cls-6" d="M339,113c.48,1.18.84,1.23,1,3,.44,4.77-2.25,11.03,5,10,.75,5.05,1.64,4.52,3,8-6.6,1.29.45,4,0,8h1.48s.51-1,.51-1c2.96,9.52,3.94,16.57,4,27-3.29.46-1.92-4.1-3.19-6.35-.73-1.29-2.6-1.46-2.83-2.35-.54-2.14.65-5.38-.14-7.64-.53-1.54-2.73-1.67-3.34-2.65-1.45-2.35.6-10.36-4.52-7.41-1.53,9.94,5.77,17.42,4.01,27.41-2.29,2.63-4.73-13.12-8.99-2.99,0-.63-.85-4.02-1-6,3.37.11,2.84.66,3.03-2.48.15-2.48-.56-9.5-1.03-12.01s-1.75-2.65-4-2.51c-.84-2.62-1.01-6.28-4-6-.04-.33.03-.67,0-1-.16-1.69-1.28-7.69-1-7.98.19-.19,4.73-2,5-2.02.58-.04,2.65,1.56,3.99,1,1.31-1.36-2.81-13.99,3.01-14Z"/><path class="cls-6" d="M393,137c5.67-2.83,4.05,2.02,6,3.49,1.35,1.01,5.67.59,6.04,2.16.39,1.65.29,11.86,0,13.89-1.09,7.74-2.93,15.69-3.1,23.9-.19,9.12,4.25,14.79,3.1,24.1-.63,5.14-8.69,5.4-13.06,4.44,1.34-6.83,2.2-13.96,5.47-18.99.78-1.2,1.06-25.86.56-28.55-.47-2.49-2.79-2.07-3.05-3.16-1.36-5.74-1.2-15.26-1.97-21.31Z"/><path class="cls-6" d="M371,81c2.95,1.12,2.69-2.08,4.47-2.11,2.07-.03,4.01.99,6.05,1.1,2.82.15,10.45-1.09,11.35,1.65s-.4,6.91.16,9.84c.47,2.45,3.15,3.53,3.77,6.23.54,2.35.1,14.56-.96,16.13-.4.6-6.02,1.23-5.61,6.5.39,4.99,4.64,3.1,7.79,3.17-.61,4.56-2.36,7.84-5.01,11.49-2.59-10.28-7.56-22.54-11-33,3.54.86,1.55-4.1,2.01-7.01h-5.01c-.76-2.51-6.23-10.82-8-13.99ZM392.91,109.89c-1.19-2.89.44-16.7-3.4-15.89-3.56.75-.06,14.1-.51,16.99l3.91-1.1Z"/><path class="cls-3" d="M379,100c4.12-.44,2.44.29,3,2,3.44,10.46,8.41,22.72,11,33,.14.55-.08,1.35,0,2,.78,6.04.62,15.57,1.97,21.31.26,1.09,2.58.67,3.05,3.16.51,2.69.23,27.35-.56,28.55-3.27,5.02-4.13,12.15-5.47,18.99-.48,2.46-.22,4.96-1,8-.41,1.6-2.4,3.39-2.07,5.43.1.63,1.75.53,1.88.72,1.46,2.14-2.97,3.2-3.54,4.12-.4.64-3.04,8.45-3.27,9.73-.1.59.02,1.34,0,2-.01.33,0,.67,0,1v3c-2.19.11-4.06,3.07-5.2,5.3-1.66,3.24-2.53,9.85-3.8,11.7-.31.45-2.18,1.16-3,2.5-1.54,2.52-3.83,5.79-4,8.5-1.72.3-2.67.9-5,1,30.24-44.28,38.66-98.37,23.5-150-1.85-6.29-4.95-16.17-7.5-22Z"/><path class="cls-6" d="M391,217c3.14.67,5.71.57,5.95,4.42-8.59,3.4-2.45,5.99-2.86,12.1-.21,3.18-2.36,3.43-2.91,5.19-1.59,5.1,4.05,11.26,2.68,15.61-1.72,5.44-3.26-1.16-3.8-1.88-4.33-5.78-8.5,11.5-15.06,7.56,1.27-1.85,2.14-8.46,3.8-11.7,1.14-2.23,3.01-5.19,5.2-5.3.12,0,.63,1.31,1.93.58,3.73-2.1,1.95-6.31-1.93-6.58.22-1.28,2.87-9.09,3.27-9.73.57-.91,5-1.97,3.54-4.12-.13-.19-1.78-.09-1.88-.72-.32-2.04,1.66-3.82,2.07-5.43Z"/><path class="cls-6" d="M279.5,63c2.92-.82,2.71-6.5,2.51-9,4.77.82,10.15.82,7.86,7.37-1.09,3.13-7.03-.66-7.92,6.08-1,7.66,3.8,12.48-7.96,11.55,2.66-11.49-6.86-6.8-8-8-.28-.29.08-6.45-.99-8.01,3.94-.7,11.08.96,14.5,0Z"/><path class="cls-3" d="M326,38c2.57-.72,6.54-2.19,9.06-1.61.47.11,6.29,5.83,6.94,6.61,4.29,5.13,11.89,13.39,15,20,.99.54,2.77.28,3.98,1.5,2.09,2.1,1.12,6.02,6.02,7.5.17,6.3,2.21,5.81,4,9,1.77,3.17,7.24,11.49,8,14,.23.75.15,2.9-1,3-5.51-12.04-15.7-23.73-21-35-6.73-3.65-4.95-5.51-9.03-10.47-2.27-2.77-21.14-22.66-20.02-10.08.25,2.83,4.6,4.58,6.57,6.53,54.91,54.19,69.19,136.17,31.65,204.7-1.84,3.37-12.07,15.38-8,18.18.73.5,2.73.11,3.83.14.08.98-.12,2.03,0,3-2.91,1.61-4.32-.1-7-1,.22-3.36,1.01-6.96,1-10,0-.33.03-.67,0-1,.95-4.89,4.79-4.77,6.51-6.99,1.92-2.47,1.1-6.08,2.43-8.32.61-1.03,2.8-1.48,4.28-3.98,6-10.14,15.02-42.69,15.83-54.17.46-6.65.87-32.97-1.11-37.77-2.17-5.26-.73-2.61-.99-8.11-.39-8.32-5.62-19.21-8.67-26.43-1.42-3.37-1.1-11.24-3.53-14.96-.46-.7-2.32-.79-3.2-2.28-2.36-3.97-2.16-6.32-5.55-11.42-2.51-3.78-8.34-14.49-10.99-17.02-1.18-1.12-3.76-1.26-4.5-2.53-.85-1.46-.16-3.89-.93-5.07-.94-1.44-4.11-.57-4.5-1.01s.26-2.35-.12-3.12c-1.31-2.67-11.95-12.35-14.94-13.81l-2-6c.34-.05,1.43-1.84,2-2Z"/><path class="cls-3" d="M257,102c0,.33-.02.67,0,1,.18,3.03,2.71,4.9,3,6,.08.31-.08.69,0,1l-.71,1.23.71.77c.09.31-.1.7,0,1,5.58,17.29,8.65,25.83,11,44-4.7-13.86-7.55-28.34-12.29-42.21-2.13-6.24-5-13.82-7.71-19.79,4.28-.04,2.86,5.62,6,7Z"/><path class="cls-6" d="M248,85c6.61,1.98,6.25-4.39,7.96-5.54,5.06-3.4,4.37,2.93,3.6,6.6-1.2,5.76-2.4,9.69-2.56,15.93-3.14-1.38-1.72-7.04-6-7-.3-.65-.68-1.32-1-2,2.71-2.19-.8-5.55-2-8Z"/><path class="cls-3" d="M217,57c10-.16,8.35-.09,15.48,5.05,3.22,2.32,4.34-1.14,2.52,5.95-5.73-4.72-9.32-10.46-17.95-7.44-3.38,1.18-3.82,3.95-5.05,6.44h-1c.13-1.78-.52-4.56.46-6.04,1.26-1.9,6.47-.62,5.54-3.96Z"/><path class="cls-6" d="M238,69c1.05-1.15,2.54-5.42,4.48-4.99,2.28.51,7.41,9.03.52,9.01.16,2.15,3.73,1.5,4.06,2.55.42,1.34.57,4.21-2.06,3.44-1.6-2.62-4.87-8.34-7-10Z"/><path class="cls-3" d="M245,79c1.44,2.36,2.01,3.97,3,6,1.2,2.45,4.71,5.81,2,8-3.36-7.12-7.23-12.68-11.22-19.28-.93-1.55-2.09-2.64-1.78-4.72.21.16.79-.16,1,0,2.13,1.66,5.4,7.38,7,10Z"/><path class="cls-6" d="M390.84,264.15c3.09,1.96.43,5.42-4.36,4.92-8.32-.87-.49-7.99,4.36-4.92Z"/><path class="cls-6" d="M269.01,90c.59-2.66-1.89-11.86,2.49-9.99,2.6,1.11,2.82,11.85-2.49,9.99Z"/><path class="cls-6" d="M319,105c.52.15,1.67-.26,1.97.03.24.24-.02,1.38.03,1.97-3,.47-1.61-.73-2-2-6.7-2-3.79-3.19-6-6,7.18-8.31,4.76,1.99,6,6Z"/><path class="cls-6" d="M302,88c4.69-3.92,4.64,2.65,5.95,3.55,1.41.97,10.69-.15,2.05,4.45-1.82-2.53-5.37-5.73-8-8Z"/><path class="cls-6" d="M286,85l-2.99,2c-1.87-1.76,4.54-10.67,4.99-5-.15.1-1.93,2.83-2,3Z"/><path class="cls-6" d="M252,63.01c1.48,2.1-5.67,6.28-3.99-1.01.2-.22,3.87.84,3.99,1.01Z"/><path class="cls-6" d="M316.99,33.99c-1.93,1.93-6.18-3.18-2.48-3.99,2.11-.46,3.21,3.26,2.48,3.99Z"/><rect class="cls-3" x="330.01" y="108.01" width="1.99" height="3.99"/><rect class="cls-6" x="327.01" y="31.01" width="2.99" height="1.99"/><path class="cls-6" d="M339,111c-.26-.23-1.75.22-2,0-.55-.51,1.01-1.88,1-1.99l1,2Z"/><path class="cls-6" d="M268.99,94.01c1.09,1.09-.9,3.08-1.99,1.99-1.09-1.09.9-3.08,1.99-1.99Z"/><path class="cls-3" d="M323.5,93c.65.33.65.67,0,1v-1Z"/><path class="cls-2" d="M123,232c1.2,9.15,6.82,16.78,9.61,24.9l27.35,53.61c-.2,6.66-17.22,13.96-22.9,15.03-6.23,1.18-8.2-.16-13.05-3.54.73-4.02-2.13-7.3-3-12,1.56,2.24,3.43,3.86,5.01,5.73.66.77.62,2.8,1.12,3.13.59.39,7.06.31,8.39.14s1.74.54,1.45-1.47c-5.45-9-9.38-19.1-15.14-27.91-4.08-6.24-10.98-12.05-13.12-19.84l-4.7-6.77c.45,1.6-1.97,2.03-2.05,2.66-.42,3.41,5.62,12.85,7.24,16.61,3.16,7.34,10.73,21.96,11.79,27.71-8.68-12.41-29.49-56.49-32.54-70.95-.32-1.5-.64-2.95-.48-4.51.32-1.83,31.53-2.52,35.02-2.54Z"/><path class="cls-1" d="M69,154c-2.05,5.02-5.45,9.64-6.63,15.05-.47,2.15.66,2.8.63,2.95-.42,1.82-.69,3.12-1,5-.03.2-1.63,1.44-1.96,3.52-1.68,10.71,2.26,26.12,7.08,35.86,1.67,3.37,6.28,11.59,10.32,11.68,5.29.11,14.15-2.64,20.06-3.04,4.13-.28,8.35.1,12.49-.01,43.1-1.18,96.19,8.77,135,28,.41.2,4.39,2.94,5.05,3.45,2.62,2.04,9.78,10.97,11.95,11.55v1c-8.93-1.37-17.99-7.66-26.32-11.18-11.2-4.72-22.2-9-33.68-12.82-1.01-.34-1.97-.67-3-1-20.66-6.6-39.13-10.91-61-12-.66-.03-1.34.03-2,0-4.29-.18-8.7-.02-13,0-3.49.02-34.7.7-35.02,2.54-.16,1.56.16,3.01.48,4.51,3.06,14.47,23.86,58.55,32.54,70.95.87,4.7,3.73,7.98,3,12-1.83-1.28-2.49-.84-4.22-3.28-7.61-10.72-13.49-32.39-19.9-45.1-1.81-3.58-4.76-6.32-6.41-9.59-1.98-3.93-11.33-27.06-12.63-27.87-2.75-1.72-12.18,1.85-16.14.85-1.09-.28-1.24-2.71-2.69-3.55-1.17-.68-2.79-.32-3.01-.47-.82-.56-10.58-14.19-11.52-15.98-1.43-2.74-7.35-16.99-5.44-18.98.38-.4,6.89.09,7.82-2.67,1.06-3.14-.14-12.33.27-16.73.71-7.65,3.85-13.47,5.87-20.63,4.35-1.41,8.63-2.67,13-4Z"/><path class="cls-2" d="M357,63c5.3,11.27,15.49,22.96,21,35,.32.7.73,1.39,1,2,2.55,5.83,5.65,15.71,7.5,22,15.16,51.63,6.74,105.72-23.5,150-.33.01-.67.01-1,0-1.09-.04-3.1.36-3.83-.14-4.07-2.81,6.15-14.82,8-18.18,37.54-68.53,23.26-150.51-31.65-204.7-1.97-1.94-6.32-3.69-6.57-6.53-1.12-12.58,17.75,7.31,20.02,10.08,4.07,4.96,2.29,6.83,9.03,10.47Z"/><path class="cls-2" d="M328,136c.03.33-.04.67,0,1,.94,7.85,3.51,15.53,4.04,23.46,1.45,21.58-2.49,53.31-16.22,70.86-2.2,2.81-3.53,5.34-6.87,2.21-4.12-3.87,2.2-8.19,4.24-11.84,4.87-8.71,7.8-16.9,9.81-26.69.12-.6-.11-1.38,0-2,5.95-33.72-.67-66.75-23.49-93.01-2.32-2.67-11.67-9.87-11.24-12.29,1.77-10.02,13.68,4.3,16.7,7.83,10.41,12.14,16.72,26,23.03,40.47Z"/><path class="cls-2" d="M56,158c-2.02,7.16-5.16,12.98-5.87,20.63-.41,4.4.79,13.59-.27,16.73-.93,2.77-7.44,2.28-7.82,2.67-1.91,1.99,4.01,16.24,5.44,18.98.93,1.79,10.69,15.43,11.52,15.98-25.85,6.71-37.11-32.4-31.06-51.56,1.93-6.12,9.8-16.38,15.35-19.65,4.37-2.57,8.44-2.41,12.71-3.79ZM44,168c-6.25-.81-5.14,2.07-7.27,4.72s-7.2,8.06-7.52,12.01c-.14,1.73.92,3.29.77,4.73-.18,1.8-4.18,5.9-1.04,8.1,1.94,1.36,9.28-.07,12.06.44-1.79-10.74,3.52-19.66,2.99-30.01Z"/><path class="cls-4" d="M335,166c4.27-10.12,6.71,5.63,8.99,2.99,1.76-9.98-5.54-17.46-4.01-27.41,5.12-2.95,3.07,5.06,4.52,7.41.61.99,2.81,1.12,3.34,2.65.79,2.27-.41,5.5.14,7.64.23.89,2.1,1.06,2.83,2.35,1.27,2.25-.1,6.81,3.19,6.35.03,5.46-.47,9.7-1,15-4.11-1.37-6.19-1.19-6.82,3.74-.61,4.7,3.57,4.88,3.82,5.26s1.26,8.5,1.04,9.35c-.29,1.1-1.98.56-2.04.65-1.42-1.47-.48-4.75-1.16-5.84-.47-.75-5.84-1.68-6.73-1.05-.74.52-2.6,9.85-2.19,11.28.31,1.08,2.81.52,3.66,1.54,2.42,2.91-5.42,10.74-6.34,13.81-.89,2.98,1.12,8.94-4.25,6.75,1.44-8.42-2.85-4.44-4-5.49-.63-.57,1.61-4.88-1.99-4.01,3.81-8.27,6.72-17.26,9.94-25.58.71-1.84-1.78-.77-2.03-2.85-.91-7.48,1.21-16.6,1.09-24.57Z"/><path class="cls-2" d="M296,207c-1.42-1.69-2.23-3.05-2.01-5.4.34-3.52,4.02-10.89,4.87-16.24,2.94-18.49-1.25-41.61-11.04-57.69-1.68-2.76-10.36-12.25-10.68-13.39-1.38-4.94,2.89-6.35,6.92-2.82,17.34,15.18,25.11,53.02,21.83,74.93-.8,5.37-3.48,19.37-8.9,20.6-.29.07-.69,0-1,0Z"/><path class="cls-3" d="M281,106c.65.06,1.44-.13,2,0,4.73,1.08,2.87,6.04,7,5,.3,2.31-.22,2.39,1,5,.94,2.02,3.55,6.03,6,5,.05.44-1.28,1.64-.37,3.71.62,1.4,2.35,1.64,3.37,3.29,1.41,2.29,2.23,6.28,3,9,2.21,7.85,3,20.15,5.04,26.41,1.31,4.02,3.88,3.84,3.04,10.15-.23,1.68-1.6,1.13-2.17,2.91-2.85,8.89-.84,16.48-6.18,26.77-.64,1.23-1.35,5.27-1.86,5.6-.85.55-4.77,1.03-3.86-1.85,5.42-1.24,8.09-15.24,8.9-20.6,3.28-21.91-4.49-59.75-21.83-74.93-4.03-3.53-8.3-2.12-6.92,2.82.32,1.15,9,10.64,10.68,13.39,9.79,16.07,13.98,39.2,11.04,57.69-.85,5.35-4.53,12.72-4.87,16.24-.23,2.35.59,3.71,2.01,5.4-3.95-.05-2.58-1.37-3.23-1.72-.28-.15-3.33,1.71-2.8-3.76.18-1.88,3.05-3.64,3.65-6.48.59-2.81-.72-4.47-.2-7.04.59-2.89,3.49-4,3.65-5.45.66-6.24.37-29.64-3-33.94-.75-.96-2.26-.4-2.77-.84-2.29-1.96-.27-8.8-.31-11.77-3.21-.96-1.43,2.35-2.06,2.88-.36.31-4.67.26-4.88.06-2.64-2.59,2.13-8.37,1.79-10.19-.7-3.76-9.81-8.65-11.31-12.81-1.46-4.08.77-6.33.45-9.95,1.98.12,4.03-.18,6,0Z"/><path class="cls-3" d="M332,143c2.07,6.46,1.53,10.66,2,17,.15,1.98.99,5.37,1,6,.12,7.98-2,17.1-1.09,24.57.25,2.08,2.74,1.01,2.03,2.85-3.22,8.31-6.13,17.31-9.94,25.58-1.68,3.64-4.43,6.86-5.02,11l-1.97-1c-.04.66.03,1.34,0,2-.12,2.46.24,4.69,1,7-.17,0-1.67,1.6-3,1,.56-5.6-2.14-1.86-5,0-.53-2.45-2.87-2.25-4-3-.43-.29-.94-1.82-2-2,.32-.79-.22-2.86,0-4,.57-2.95-.11-5.68,4-5,.27-2.34-2.31-2.61-1.84-5.24.68-3.8,4.69-3.92,6.27-5.82,3.03-3.64,2.07-7.2,3.08-9.83.92-2.38,3.46-7.38,5.49-9.1-2.01,9.79-4.93,17.99-9.81,26.69-2.04,3.64-8.36,7.97-4.24,11.84,3.34,3.13,4.67.6,6.87-2.21,13.73-17.55,17.66-49.28,16.22-70.86-.53-7.93-3.1-15.61-4.04-23.46,2.99-.28,3.16,3.38,4,6Z"/><path class="cls-3" d="M271,159l4.95,11.55c.21,5.59.18,12.32,1.28,17.76.56,2.75,2.58,2.59,2.75,3.38.42,1.9-.21,4.3.02,6.3.66.79,5.47-3.95,3.99,3-.6-.08-1.39-.05-2,0-2.35.18-3.48-.55-3.76,2.71-.08,1,.57,10.97.73,11.59.26,1.02,2.05.99,2.5,1.67,2.01,3.05-1.09,5.47-1.52,8.47-.64,4.38,1.04,9.11.82,12.81-.23,3.82-3.86,18.85-5.22,22.79-2.19,6.34-7.23,8.92-13.55,7.96v-1c3.61.97,8.85-3.13,10.24-6.26,11.41-25.77,2.45-74.93-1.24-102.74Z"/><path class="cls-4" d="M202,245c4.11,6.99-9.52,5.32-13.54,5.04s-8.07-1.71-11.97-2.04c-1.51-.13-3.24,1.2-4.8.85-2.42-.55-3.32-4.6-4.4-4.87-2.42-.6-9.63,1.55-11.3.01-1.5-1.38.11-1.82,1.48-1.99,3.8-.48,18.85.29,21.88,1.95,1.4.77.03,3.06,1.15,3.07.82,0,2.05-.96,3.09-.92,4.26.18,7.48.27,11.93-.11,1.9-.17,4.02,1.14,3.47-1.99,1.03.33,1.99.66,3,1Z"/><path class="cls-4" d="M74.13,144.85c3.58,3.09,4.63-3.68,5.53-3.89,1.71-.41,4.42.32,6.35.05,1.72,6.24-9.48,7.48-14.02,6.6-3.26-.64-8.53-2.47-6.99-6.6,2.17.28,5.48-.57,7.39.11s1.3,3.34,1.75,3.73Z"/><path class="cls-4" d="M149,333c-3.02,8.87-15.84,1.35-14.97-2.42.47-2.05,12.34-6.24,12.97-5.58,1.41,4.96-5.26,2.49-7.97,4.52-1.04.78-1.55,2.94-1.02,3.47.39.39,9.19.07,11,0,.38-1.1-.52-3.21,1.61-3.91,4.33-1.43,5.52,3.72,3.89,3.92s-3.71-.07-5.49,0Z"/><path class="cls-1" d="M212,67c-3.86,7.88-5.28,16.32-16,18,4.55-6.06,9.11-12.77,15-18h1Z"/><path class="cls-4" d="M356,264c-2.03-.81-1.95,2.05-2.57,2.04-.89-.02-2.65-1.43-3.31-.98-.36.24-2.49,7.49-5.11,4.95-.24-.23-.18-5.51-.05-6.55.62-4.99,2.65-2.74,6.31-3.69,1.16-.3,1.76-1.55,2.25-1.75,1.54-.63,2.45,4.53,2.48,4.99.03.33,0,.67,0,1Z"/><path class="cls-4" d="M138,232c-2.18,4.27,2.86,16.35-.01,18.53-.87.66-2.75.27-2.99.47-.15.13.13,4.12-1.99,1.99s1.84-1.87,1.99-1.99c.88-.69,1.48-7.55.5-9.05-.54-.82-4.12-.94-2.5-2.93,1.12-1.37,4.6-.86,2.99-7.02.66.03,1.34-.03,2,0Z"/><path class="cls-4" d="M34.99,156c1.17,1.14-3.42,11.46-5.48,10.99-3.15-.73.37-8.92,1.38-10.4.84-1.24,2.81-.42,4.1-.59Z"/><path class="cls-4" d="M362,275c.35,2.91,1.48,3.5,2,5.99-2.91.48-9.73-2.2-9.81-5.3-.02-.67.79-1.35.81-1.7,2.68.9,4.09,2.61,7,1Z"/><path class="cls-4" d="M308,116c1.1,2.61,1.3,4.91,2,7-7.24,3.64-9.05-6.94-2-7Z"/><path class="cls-4" d="M108,314c-5.39,1.31-6.48-8.14-2.48-8.99,3.48-.74,2.43,7.27,2.48,8.99Z"/><path class="cls-4" d="M136,118.99c-1.56-1.36.15-1.82,1.49-2,8.99-1.21,10.54,7.34,5.17,5.86-1.35-.37-2.06-2.18-3.15-2.9-1.34-.89-3.38-.84-3.51-.96Z"/><path class="cls-4" d="M330,240c-.21-.15-1.14.43-2.05-.66-3.78-4.52-1.12-6.96,4.04-7.33-.42,2.29-.6,4.72-.99,7-.08.46-.54.87-1,1Z"/><path class="cls-4" d="M324,40l2,6c-1.34-.65-5.78.37-6.84-3.67-1.29-4.93,3.85-2.18,4.84-2.33Z"/><path class="cls-4" d="M290,111c-4.13,1.04-2.27-3.92-7-5,5.44-5.04,6.39.22,7,5Z"/><path class="cls-4" d="M57.83,236.17c.26.12,3.67,4.38,3.16,4.83h-7.99c-1.13-2.5,2.91-5.68,4.83-4.83Z"/><path class="cls-4" d="M306,230c-.22,1.14.32,3.21,0,4-.53,1.32-6.02,5.09-6.04.49,0-2.38,3.85-4.32,6.04-4.49Z"/><path class="cls-4" d="M114.99,315.01c.44.46.14,5.69-1.52,6-.91.17-4.29-1.74-4.47-2.51-.54-2.27,5.28-4.21,5.99-3.48Z"/><path class="cls-4" d="M57,150.99c-.76,1.13-9.28,2.47-5.54-3.03,1.99-2.93,7.34.34,5.54,3.03Z"/><path class="cls-4" d="M319,231c2.8-.38,6.1,6.73,4.99,8-1.34.09-2.76-.98-3.99-1-.76-2.31-1.12-4.54-1-7Z"/><path class="cls-4" d="M311,126c1.12,3.13,1.71-.77,1,6-1.48.36-2.94-.83-4-1v-3c.17-.05,1.33-2.51,3-2Z"/><path class="cls-4" d="M302,223.01c2.64,2.58-4.48,5.36-6.99,3.99-.91-3.33,5.85-5.1,6.99-3.99Z"/><path class="cls-4" d="M304,128c0,1,0,2,0,3,0,1.88.66,4.92-1,6-.77-2.72-1.59-6.71-3-9h4Z"/><path class="cls-4" d="M284,201c1.59.2,2.89-.26,3.99,1.52.67,2.97-8.3,4.75-5.99-1.52.61-.05,1.4-.08,2,0Z"/><path class="cls-4" d="M297,121c-2.45,1.03-5.06-2.98-6-5l.52-.99c2.7-.64,5.21,3.61,5.48,5.99Z"/><path class="cls-4" d="M275,106c0-.11-1.62-1.41-1-1.99.24-.22,5.62-1.12,6.48-1.02l.51,3.01c-1.97-.18-4.02.12-6,0Z"/><path class="cls-4" d="M260,109c5.2-6.34,5.73,3.24,0,4-.1-.3.09-.69,0-1-.16-.54.15-1.42,0-2-.08-.31.08-.69,0-1Z"/><path class="cls-4" d="M26.99,171.99c-2.28,2.29-6.31-4.12-2.48-4.99,2.45-.55,3.13,4.34,2.48,4.99Z"/><path class="cls-4" d="M312,239c-.83.54-1.2,2.91-4,2v-5c1.12.75,3.46.55,4,3Z"/><path class="cls-4" d="M318,65c-.6-3,1.39-1.89,4-2,.18,1.27-.23,2.83,0,4-2.79.81-2.8-1-4-2Z"/><path class="cls-4" d="M160.01,303v-4.99c4.1-.09,4.1,5.08,0,4.99Z"/><path class="cls-4" d="M164,307.99v5c-2.72.78-2.81-2.58-2.99-4.99h2.99Z"/><path class="cls-3" d="M308,128v3c-1.23-.2-2.72.13-4,0,0-1,0-2,0-3,1.14,0,3.14.24,4,0Z"/><path class="cls-4" d="M147.99,113.01v2.99s-3.99,0-3.99,0v-1.48c1.06-1.57,2.15-1.74,3.99-1.51Z"/><path class="cls-3" d="M316.01,195v-3.99c3.98.02,3.93,3.99,0,3.99Z"/><path class="cls-4" d="M26.99,214v3.99c-3.98-.02-3.93-3.99,0-3.99Z"/><path class="cls-4" d="M177.99,97.01c.74,2.36-1.82,2.74-3.99,2.99v-2.99s3.99,0,3.99,0Z"/><rect class="cls-3" x="310.01" y="147.01" width="1.99" height="3.99"/><rect class="cls-4" x="248.01" y="267.01" width="2.99" height="1.99"/><rect class="cls-3" x="352.01" y="236.01" width="2.99" height="1.99"/><rect class="cls-3" x="368.01" y="160.01" width="1.99" height="2.99"/><path class="cls-4" d="M202.99,70.01c1.09,1.09-.9,3.08-1.99,1.99s.9-3.08,1.99-1.99Z"/><path class="cls-3" d="M357.99,89.01c1.09,1.09-.9,3.08-1.99,1.99-1.09-1.09.9-3.08,1.99-1.99Z"/><path class="cls-1" d="M192,89l-2,2s-1.56.15-.52-1.01c.88-.98,2.19-.73,2.52-.99Z"/><path class="cls-4" d="M45.99,235.01c1.09,1.09-.9,3.08-1.99,1.99s.9-3.08,1.99-1.99Z"/><path class="cls-1" d="M195,86l-2,2c1.65-2.1,1.18-1.19,2-2Z"/><path class="cls-3" d="M290.5,149c.65.33.65.67,0,1v-1Z"/><path class="cls-1" d="M229.69,71.31c18.99,16.36,34.75,79.59,38.99,104.5,2.99,17.58,8.39,63.3,1.09,78.46-6.9,14.33-16.95-2.68-20.95-9.61-23.74-41.08-39.41-111.96-34.71-159.05.87-8.75,4.76-23.62,15.57-14.31ZM221.12,148.13c-.97,1.51,4.92,27.61,6.16,31.09,1.57,4.43,3.78,8.89,7.58,3.13,5.22-7.92,1.54-33.53-9.59-35.16-.94-.14-3.81.42-4.14.94Z"/><path class="cls-5" d="M206,94l.48,33.98c-.36.79-6.02,6.02-7.24,6.99-32.11,25.36-80.98,46.59-121.04,54.74-15.31,3.11-17.51,6.21-16.21-12.71.31-1.88.58-3.18,1-5,2.92-3.42,5.14-3.88,9-5,26.34-7.67,47.93-11.22,72.67-24.83s37.95-27.88,57.31-45.69c1.23-1.13,2.06-2.5,4.02-2.48Z"/><path class="cls-3" d="M72,167c1.24-10.26,13.89-9.22,21.76-11.74,42.16-13.5,74.56-33.58,105.29-64.75,6.98-7.08,7.15-11.71,6.95,3.48-1.96-.02-2.78,1.35-4.02,2.48-19.37,17.81-33.59,32.64-57.31,45.69s-46.33,17.16-72.67,24.83Z"/><path class="cls-3" d="M110,225l-1.49-1.99c38.99-7.34,80.33-.59,116.16,15.82,7.1,3.25,16.93,6.89,20.32,14.18-38.81-19.23-91.9-29.18-135-28Z"/><path class="cls-2" d="M331,251c-.46-1.21.26-3.46.78-4.71,2.82-6.78,9.87-14.67,13.4-22.61,21.35-47.98,11.06-108.4-26.53-145.33-2.03-1.99-12.06-8.85-12.46-9.53-1.24-2.16.78-5.66,3.36-5.87,4.93-.39,23.3,20.38,26.86,25.13,32.44,43.33,37.4,116.26,3,159.83-1.57,1.98-6.58,7.86-8.41,3.09Z"/><path class="cls-6" d="M353,183c-.41,4.17,1.91,7.78-3,9-.25-.38-4.43-.56-3.82-5.26.64-4.92,2.72-5.11,6.82-3.74Z"/><path class="cls-4" d="M340,116c5.52,4.16,4.14,4.23,5,10-7.25,1.03-4.56-5.23-5-10Z"/><path class="cls-4" d="M348,134c1.11,2.83,1.24,4.54,2,7l-.51.99h-1.48c.44-3.99-6.6-6.7,0-7.99Z"/><path class="cls-4" d="M355.99,45.01c2.08,2.11-1.91,6.06-3.99,3.99-1.62-1.62,2.39-5.61,3.99-3.99Z"/><path class="cls-4" d="M332,143c2.25-.14,3.51-.06,4,2.51s1.18,9.54,1.03,12.01c-.19,3.13.34,2.59-3.03,2.48-.47-6.34.07-10.54-2-17Z"/><path class="cls-4" d="M392.91,109.89l-3.91,1.1c.45-2.89-3.05-16.24.51-16.99,3.84-.81,2.21,13,3.4,15.89Z"/><path class="cls-4" d="M379,95h5.01c-.46,2.9,1.53,7.86-2.01,7-.56-1.71,1.12-2.44-3-2-.27-.61-.68-1.3-1-2,1.15-.1,1.23-2.25,1-3Z"/><path class="cls-4" d="M384,243v-3l.98-.5-.98-.5c.02-.66-.1-1.41,0-2,3.88.27,5.66,4.47,1.93,6.58-1.3.73-1.81-.58-1.93-.58Z"/><path class="cls-6" d="M384,240c0-.33-.01-.67,0-1l.98.5-.98.5Z"/><path class="cls-6" d="M260,112l-.71-.77.71-1.23c.15.58-.16,1.46,0,2Z"/><path class="cls-5" d="M121,310c-1.06-5.75-8.63-20.37-11.79-27.71-1.62-3.76-7.66-13.2-7.24-16.61.08-.63,2.5-1.06,2.05-2.66l4.7,6.77c2.14,7.78,9.04,13.59,13.12,19.84,5.76,8.81,9.68,18.91,15.14,27.91.28,2.01-.07,1.29-1.45,1.47s-7.8.25-8.39-.14c-.5-.33-.46-2.36-1.12-3.13-1.59-1.87-3.45-3.49-5.01-5.73Z"/><path class="cls-5" d="M44,168c.53,10.35-4.78,19.27-2.99,30.01-2.79-.51-10.12.91-12.06-.44-3.15-2.2.86-6.3,1.04-8.1.14-1.45-.91-3-.77-4.73.32-3.95,5.45-9.44,7.52-12.01s1.02-5.53,7.27-4.72Z"/><path class="cls-2" d="M221.12,148.13c.34-.52,3.2-1.08,4.14-.94,11.13,1.64,14.81,27.24,9.59,35.16-3.8,5.76-6,1.31-7.58-3.13-1.24-3.49-7.13-29.59-6.16-31.09Z"/></svg>